<?xml version="1.0" standalone="no"?>
<!DOCTYPE svg PUBLIC "-//W3C//DTD SVG 20010904//EN"
 "http://www.w3.org/TR/2001/REC-SVG-20010904/DTD/svg10.dtd">
<svg version="1.0" xmlns="http://www.w3.org/2000/svg"
 width="300.000000pt" height="300.000000pt" viewBox="0 0 300.000000 300.000000"
 preserveAspectRatio="xMidYMid meet">
<metadata>
Created by potrace 1.10, written by Peter Selinger 2001-2011
</metadata>
<g transform="translate(0.000000,300.000000) scale(0.100000,-0.100000)"
fill="#000000" stroke="none">
<path d="M2106 2793 c-38 -122 -111 -315 -183 -483 -71 -165 -245 -525 -263
-544 -5 -5 -29 1 -57 14 -26 12 -187 86 -358 162 -170 77 -330 149 -355 160
-25 11 -83 38 -129 59 -46 22 -86 39 -88 39 -3 0 18 -25 46 -56 139 -152 267
-384 321 -582 27 -99 43 -215 43 -319 l1 -92 60 53 c34 29 115 98 181 153 66
56 131 113 145 127 l24 27 -32 -14 c-29 -12 -57 -32 -151 -112 -78 -66 -95
-81 -112 -97 -28 -26 -69 -51 -75 -45 -3 3 -12 54 -20 114 -13 101 -25 163
-44 223 -4 14 -14 45 -21 70 -7 25 -17 51 -22 58 -5 6 -6 12 -3 12 4 0 1 12
-7 28 -7 15 -20 41 -28 57 -47 94 -88 166 -119 210 -20 28 -39 58 -43 67 -5
15 -2 15 26 6 18 -5 65 -25 104 -44 40 -19 80 -34 88 -34 8 0 15 -4 15 -10 0
-5 7 -10 15 -10 8 0 23 -4 33 -10 17 -9 125 -59 232 -107 30 -14 63 -29 72
-34 10 -5 24 -9 32 -9 7 0 19 -7 26 -15 6 -8 15 -14 18 -13 4 1 26 -8 50 -20
23 -12 42 -20 42 -16 0 4 6 2 13 -3 6 -6 25 -13 40 -17 17 -4 26 -11 22 -19
-4 -7 11 7 32 29 31 34 166 279 154 279 -2 0 14 36 37 80 44 87 156 353 167
398 4 15 11 30 16 33 5 3 9 14 9 26 0 13 5 18 14 15 8 -3 17 -1 19 6 3 7 5
-12 5 -40 0 -29 -3 -51 -7 -49 -3 2 -6 -53 -5 -122 0 -70 -8 -289 -17 -486
-11 -215 -14 -366 -9 -376 5 -10 40 -33 77 -53 101 -54 99 -52 80 -71 -8 -9
-22 -16 -29 -16 -8 0 -18 -4 -24 -9 -5 -5 -38 -21 -74 -36 -71 -28 -87 -35
-142 -59 -20 -9 -40 -16 -44 -16 -4 0 -28 -9 -53 -21 -25 -12 -77 -36 -116
-53 -38 -18 -86 -39 -105 -46 -19 -7 -48 -18 -65 -25 -16 -6 -46 -18 -65 -25
-19 -8 -50 -22 -68 -32 -18 -10 -37 -18 -42 -18 -5 0 -44 -16 -87 -35 -112
-51 -183 -78 -183 -69 0 2 19 25 43 52 139 156 316 407 349 496 24 61 25 62
-47 -44 -147 -216 -283 -388 -412 -519 -51 -52 -93 -96 -93 -98 0 -2 21 7 48
21 48 24 1244 531 1295 549 16 5 25 13 20 17 -4 4 -60 31 -123 60 -63 29 -116
53 -117 54 -2 1 2 85 7 187 20 398 45 1139 38 1139 -2 0 -12 -26 -22 -57z"/>
<path d="M1521 444 c-18 -19 -30 -38 -27 -42 4 -3 27 4 51 16 31 15 45 28 45
42 0 32 -33 24 -69 -16z"/>
<path d="M1294 448 c-7 -22 19 -52 40 -45 17 6 29 34 23 51 -10 24 -54 21 -63
-6z"/>
<path d="M619 433 c-76 -206 -102 -263 -120 -263 -10 0 -19 -4 -19 -10 0 -5
23 -10 50 -10 28 0 50 5 50 10 0 6 -9 10 -20 10 -18 0 -19 1 -3 44 17 44 17
44 70 48 l53 3 15 -44 c18 -54 18 -51 0 -51 -8 0 -15 -4 -15 -10 0 -6 28 -10
65 -10 61 0 87 12 47 22 -16 5 -66 112 -121 261 -6 15 -17 27 -26 27 -9 0 -20
-12 -26 -27z m29 -88 c5 -16 13 -38 17 -47 6 -16 1 -18 -38 -18 l-45 0 21 55
c21 58 27 60 45 10z"/>
<path d="M2050 450 c0 -5 9 -10 20 -10 19 0 20 -7 20 -135 0 -128 -1 -135 -20
-135 -11 0 -20 -4 -20 -9 0 -5 55 -10 125 -10 l125 -1 0 50 c0 53 -14 67 -24
26 -10 -40 -33 -56 -82 -56 l-44 0 0 65 0 65 55 0 c30 0 55 5 55 10 0 6 -25
10 -55 10 l-55 0 0 60 0 60 41 0 c53 0 76 -13 84 -50 10 -47 25 -35 25 20 l0
50 -125 0 c-77 0 -125 -4 -125 -10z"/>
<path d="M884 366 c-40 -18 -68 -76 -60 -125 13 -82 120 -121 183 -67 15 13
25 28 20 32 -4 4 -17 -2 -30 -14 -14 -13 -36 -22 -56 -22 -28 0 -34 5 -48 37
-10 25 -13 52 -9 82 7 53 21 71 52 71 19 0 26 -7 31 -30 4 -23 11 -30 29 -30
19 0 24 5 24 26 0 19 -8 28 -35 40 -42 17 -61 17 -101 0z"/>
<path d="M1103 360 c-40 -24 -53 -48 -53 -100 0 -52 13 -76 50 -95 44 -23 94
-19 127 9 15 13 25 27 21 31 -3 4 -16 -3 -27 -14 -26 -26 -72 -27 -94 -3 -21
23 -23 130 -4 156 19 26 60 17 67 -14 4 -18 13 -25 30 -25 38 0 37 31 -2 55
-41 25 -74 25 -115 0z"/>
<path d="M1473 361 c-39 -25 -53 -49 -53 -95 0 -71 44 -116 115 -116 29 0 45
8 71 34 29 29 34 41 34 80 0 90 -92 144 -167 97z m97 -20 c5 -11 10 -47 10
-80 0 -48 -4 -65 -20 -81 -11 -11 -24 -20 -30 -20 -5 0 -19 9 -30 20 -16 16
-20 33 -20 81 0 76 12 99 50 99 19 0 33 -7 40 -19z"/>
<path d="M1786 359 c-21 -17 -26 -18 -26 -5 0 12 -11 16 -45 16 -26 0 -45 -5
-45 -11 0 -6 7 -9 15 -5 13 4 15 -9 15 -89 0 -78 -3 -95 -15 -95 -8 0 -15 -4
-15 -10 0 -6 27 -10 60 -10 33 0 60 4 60 10 0 6 -7 10 -15 10 -24 0 -21 141 3
163 46 42 72 10 72 -88 0 -49 -4 -67 -15 -71 -32 -13 -13 -24 40 -24 30 0 55
5 55 10 0 6 -7 10 -15 10 -12 0 -15 16 -15 80 0 73 -3 83 -25 105 -30 30 -54
31 -89 4z"/>
<path d="M2383 370 c-12 -5 -27 -19 -33 -31 -18 -33 2 -65 57 -92 38 -18 48
-27 48 -47 0 -22 -5 -25 -38 -28 -35 -3 -39 0 -50 27 -16 42 -27 39 -27 -7 l0
-38 61 -2 c74 -3 109 15 109 56 0 36 -8 46 -56 70 -54 28 -70 47 -54 67 7 8
26 15 41 15 23 0 32 -6 40 -26 11 -31 22 -25 23 13 1 27 -1 28 -49 30 -27 1
-60 -2 -72 -7z"/>
<path d="M1265 360 c3 -5 12 -7 20 -3 13 4 15 -10 15 -86 0 -72 -3 -93 -15
-97 -32 -13 -12 -22 45 -23 33 0 60 4 60 10 0 5 -7 9 -15 9 -12 0 -15 18 -15
100 l0 100 -51 0 c-29 0 -48 -4 -44 -10z"/>
</g>
</svg>
